{
    "programs": [

    ],
    "streams": [
        {
            "index": 0,
            "codec_name": "h264",
            "codec_long_name": "H.264 / AVC / MPEG-4 AVC / MPEG-4 part 10",
            "profile": "Constrained Baseline",
            "codec_type": "video",
            "codec_tag_string": "avc1",
            "codec_tag": "0x31637661",
            "width": 640,
            "height": 480,
            "coded_width": 640,
            "coded_height": 480,
            "closed_captions": 0,
            "film_grain": 0,
            "has_b_frames": 0,
            "sample_aspect_ratio": "1:1",
            "display_aspect_ratio": "4:3",
            "pix_fmt": "yuv420p",
            "level": 30,
            "chroma_location": "left",
            "field_order": "progressive",
            "refs": 1,
            "is_avc": "true",
            "nal_length_size": "4",
            "id": "0x1",
            "r_frame_rate": "2997/100",
            "avg_frame_rate": "2997/100",
            "time_base": "1/2997",
            "start_pts": 0,
            "start_time": "0.000000",
            "duration_ts": 1788500,
            "duration": "596.763430",
            "bit_rate": "696135",
            "bits_per_raw_sample": "8",
            "nb_frames": "17885",
            "extradata_size": 38,
            "disposition": {
                "default": 1,
                "dub": 0,
                "original": 0,
                "comment": 0,
                "lyrics": 0,
                "karaoke": 0,
                "forced": 0,
                "hearing_impaired": 0,
                "visual_impaired": 0,
                "clean_effects": 0,
                "attached_pic": 0,
                "timed_thumbnails": 0,
                "captions": 0,
                "descriptions": 0,
                "metadata": 0,
                "dependent": 0,
                "still_image": 0
            },
            "tags": {
                "creation_time": "1970-01-01T00:00:00.000000Z",
                "language": "und",
                "handler_name": "VideoHandler",
                "vendor_id": "[0][0][0][0]"
            }
        },
        {
            "index": 1,
            "codec_name": "aac",
            "codec_long_name": "AAC (Advanced Audio Coding)",
            "profile": "LC",
            "codec_type": "audio",
            "codec_tag_string": "mp4a",
            "codec_tag": "0x6134706d",
            "sample_fmt": "fltp",
            "sample_rate": "44100",
            "channels": 2,
            "channel_layout": "stereo",
            "bits_per_sample": 0,
            "id": "0x2",
            "r_frame_rate": "0/0",
            "avg_frame_rate": "0/0",
            "time_base": "1/44100",
            "start_pts": 0,
            "start_time": "0.000000",
            "duration_ts": 26297344,
            "duration": "596.311655",
            "bit_rate": "99701",
            "nb_frames": "25681",
            "extradata_size": 5,
            "disposition": {
                "default": 1,
                "dub": 0,
                "original": 0,
                "comment": 0,
                "lyrics": 0,
                "karaoke": 0,
                "forced": 0,
                "hearing_impaired": 0,
                "visual_impaired": 0,
                "clean_effects": 0,
                "attached_pic": 0,
                "timed_thumbnails": 0,
                "captions": 0,
                "descriptions": 0,
                "metadata": 0,
                "dependent": 0,
                "still_image": 0
            },
            "tags": {
                "creation_time": "1970-01-01T00:00:00.000000Z",
                "language": "und",
                "handler_name": "SoundHandler",
                "vendor_id": "[0][0][0][0]"
            }
        }
    ],
    "chapters": [

    ],
    "format": {
        "filename": "source copy.mp4",
        "nb_streams": 2,
        "nb_programs": 0,
        "format_name": "mov,mp4,m4a,3gp,3g2,mj2",
        "format_long_name": "QuickTime / MOV",
        "start_time": "0.000000",
        "duration": "596.764000",
        "size": "59710522",
        "bit_rate": "800457",
        "probe_score": 100,
        "tags": {
            "major_brand": "isom",
            "minor_version": "512",
            "compatible_brands": "isomiso2avc1mp41",
            "creation_time": "1970-01-01T00:00:00.000000Z",
            "title": "BBC World News : BBC : September 17, 2001 2:00am-2:09am BST - http://www.archive.org/details/BBC_20010917_010000_BBC_World_News",
            "encoder": "Lavf53.1.0"
        }
    }
}

{
    "programs": [

    ],
    "streams": [
        {
            "index": 0,
            "codec_name": "aac",
            "codec_long_name": "AAC (Advanced Audio Coding)",
            "profile": "LC",
            "codec_type": "audio",
            "codec_tag_string": "mp4a",
            "codec_tag": "0x6134706d",
            "sample_fmt": "fltp",
            "sample_rate": "48000",
            "channels": 2,
            "channel_layout": "stereo",
            "bits_per_sample": 0,
            "id": "0x1",
            "r_frame_rate": "0/0",
            "avg_frame_rate": "0/0",
            "time_base": "1/48000",
            "start_pts": 0,
            "start_time": "0.000000",
            "duration_ts": 71477806,
            "duration": "1489.120958",
            "bit_rate": "252135",
            "nb_frames": "69805",
            "extradata_size": 2,
            "disposition": {
                "default": 1,
                "dub": 0,
                "original": 0,
                "comment": 0,
                "lyrics": 0,
                "karaoke": 0,
                "forced": 0,
                "hearing_impaired": 0,
                "visual_impaired": 0,
                "clean_effects": 0,
                "attached_pic": 0,
                "timed_thumbnails": 0,
                "captions": 0,
                "descriptions": 0,
                "metadata": 0,
                "dependent": 0,
                "still_image": 0
            },
            "tags": {
                "creation_time": "2017-10-09T19:23:41.000000Z",
                "language": "eng",
                "handler_name": "Core Media Audio",
                "vendor_id": "[0][0][0][0]"
            }
        },
        {
            "index": 1,
            "codec_name": "h264",
            "codec_long_name": "H.264 / AVC / MPEG-4 AVC / MPEG-4 part 10",
            "profile": "High",
            "codec_type": "video",
            "codec_tag_string": "avc1",
            "codec_tag": "0x31637661",
            "width": 480,
            "height": 360,
            "coded_width": 480,
            "coded_height": 360,
            "closed_captions": 0,
            "film_grain": 0,
            "has_b_frames": 0,
            "sample_aspect_ratio": "1:1",
            "display_aspect_ratio": "4:3",
            "pix_fmt": "yuv420p",
            "level": 30,
            "color_range": "tv",
            "color_space": "smpte170m",
            "color_transfer": "bt709",
            "color_primaries": "smpte170m",
            "chroma_location": "left",
            "field_order": "progressive",
            "refs": 1,
            "is_avc": "true",
            "nal_length_size": "4",
            "id": "0x2",
            "r_frame_rate": "30000/1001",
            "avg_frame_rate": "30000/1001",
            "time_base": "1/30000",
            "start_pts": 0,
            "start_time": "0.000000",
            "duration_ts": 44673629,
            "duration": "1489.120967",
            "bit_rate": "753340",
            "bits_per_raw_sample": "8",
            "nb_frames": "44629",
            "extradata_size": 36,
            "disposition": {
                "default": 1,
                "dub": 0,
                "original": 0,
                "comment": 0,
                "lyrics": 0,
                "karaoke": 0,
                "forced": 0,
                "hearing_impaired": 0,
                "visual_impaired": 0,
                "clean_effects": 0,
                "attached_pic": 0,
                "timed_thumbnails": 0,
                "captions": 0,
                "descriptions": 0,
                "metadata": 0,
                "dependent": 0,
                "still_image": 0
            },
            "tags": {
                "creation_time": "2017-10-09T19:23:41.000000Z",
                "language": "und",
                "handler_name": "Core Media Video",
                "vendor_id": "[0][0][0][0]"
            }
        }
    ],
    "chapters": [

    ],
    "format": {
        "filename": "source.mp4",
        "nb_streams": 2,
        "nb_programs": 0,
        "format_name": "mov,mp4,m4a,3gp,3g2,mj2",
        "format_long_name": "QuickTime / MOV",
        "start_time": "0.000000",
        "duration": "1489.120967",
        "size": "187786787",
        "bit_rate": "1008846",
        "probe_score": 100,
        "tags": {
            "major_brand": "mp42",
            "minor_version": "1",
            "compatible_brands": "mp41mp42isom",
            "creation_time": "2017-10-09T19:23:41.000000Z"
        }
    }
}
